STARTFONT 2.1
FONT -Adobe-ITC Zapf Chancery-Medium-I-Normal--25-180-100-100-P-113-ISO8859-1
SIZE 18 100 100
FONTBOUNDINGBOX 31 24 -4 -5

STARTPROPERTIES 26
_DEC_DEVICE_FONTNAMES "PS=ZapfChancery-MediumItalic"
FONTNAME_REGISTRY ""
FAMILY_NAME "ITC Zapf Chancery"
FOUNDRY "Adobe"
WEIGHT_NAME "Medium"
SLANT "I"
SETWIDTH_NAME "Normal"
ADD_STYLE_NAME ""
PIXEL_SIZE 25
POINT_SIZE 180
RESOLUTION_X 100
RESOLUTION_Y 100
SPACING "P"
AVERAGE_WIDTH 113
CHARSET_REGISTRY "ISO8859"
CHARSET_ENCODING "1"
CHARSET_COLLECTIONS "ASCII ISO8859-1 ADOBE-STANDARD"
FULL_NAME "ITC Zapf Chancery Medium Italic"
COPYRIGHT "Copyright (c) 1991 Adobe Systems, Inc."
CAP_HEIGHT 15
X_HEIGHT 14
WEIGHT 10
QUAD_WIDTH 13
DEFAULT_CHAR 0
FONT_DESCENT 5
FONT_ASCENT 19
ENDPROPERTIES

CHARS 190

STARTCHAR space
ENCODING 32
SWIDTH 220 0
DWIDTH 5 0
BBX 1 1 0 0
BITMAP
00
ENDCHAR

STARTCHAR exclam
ENCODING 33
SWIDTH 280 0
DWIDTH 6 0
BBX 5 15 1 0
BITMAP
18
18
18
18
30
30
30
30
60
60
60
60
00
C0
C0
ENDCHAR

STARTCHAR quotedbl
ENCODING 34
SWIDTH 220 0
DWIDTH 9 0
BBX 7 6 1 9
BITMAP
66
66
66
CC
CC
88
ENDCHAR

STARTCHAR numbersign
ENCODING 35
SWIDTH 680 0
DWIDTH 9 0
BBX 12 15 0 0
BITMAP
0880
0880
0880
0880
7FF0
7F80
1100
1100
1100
FFE0
FF00
2200
2200
2200
2200
ENDCHAR

STARTCHAR dollar
ENCODING 36
SWIDTH 440 0
DWIDTH 9 0
BBX 9 19 0 -2
BITMAP
0100
0100
0780
1F80
1A00
3200
3400
1C00
0E00
0E00
0B00
0B00
1300
1300
1600
FE00
F800
2000
2000
ENDCHAR

STARTCHAR percent
ENCODING 37
SWIDTH 680 0
DWIDTH 17 0
BBX 15 16 1 -1
BITMAP
0C20
3E20
6640
4640
C680
C68C
C53E
CD66
FA46
62C6
04C6
04C4
08CC
08F8
1060
1000
ENDCHAR

STARTCHAR ampersand
ENCODING 38
SWIDTH 780 0
DWIDTH 20 0
BBX 21 13 0 0
BITMAP
00C018
00C018
00C010
0C9FE0
3F3FC0
662600
4C2600
D80400
E00C00
C01800
C03000
7FE000
3F8000
ENDCHAR

STARTCHAR quoteright
ENCODING 39
SWIDTH 240 0
DWIDTH 6 0
BBX 3 5 1 10
BITMAP
60
60
60
40
80
ENDCHAR

STARTCHAR parenleft
ENCODING 40
SWIDTH 260 0
DWIDTH 7 0
BBX 7 21 1 -4
BITMAP
02
04
08
18
10
30
20
60
60
60
40
C0
C0
C0
C0
C0
C0
E0
60
70
30
ENDCHAR

STARTCHAR parenright
ENCODING 41
SWIDTH 220 0
DWIDTH 7 0
BBX 7 21 0 -4
BITMAP
18
1C
0C
0E
06
06
06
06
06
06
04
0C
0C
0C
08
18
10
30
20
40
80
ENDCHAR

STARTCHAR asterisk
ENCODING 42
SWIDTH 420 0
DWIDTH 8 0
BBX 6 6 2 12
BITMAP
10
54
38
70
A8
20
ENDCHAR

STARTCHAR plus
ENCODING 43
SWIDTH 520 0
DWIDTH 12 0
BBX 10 9 1 0
BITMAP
0C00
0C00
0C00
FFC0
FFC0
0C00
0C00
0C00
0C00
ENDCHAR

STARTCHAR comma
ENCODING 44
SWIDTH 220 0
DWIDTH 5 0
BBX 3 4 0 -2
BITMAP
60
60
40
80
ENDCHAR

STARTCHAR minus
ENCODING 45
SWIDTH 600 0
DWIDTH 12 0
BBX 11 2 1 4
BITMAP
FFE0
FFE0
ENDCHAR

STARTCHAR period
ENCODING 46
SWIDTH 220 0
DWIDTH 5 0
BBX 2 2 1 0
BITMAP
C0
C0
ENDCHAR

STARTCHAR slash
ENCODING 47
SWIDTH 340 0
DWIDTH 14 0
BBX 12 21 1 -3
BITMAP
0030
0020
0060
0040
00C0
0080
0180
0100
0300
0200
0600
0400
0C00
0800
1800
1000
3000
2000
6000
4000
C000
ENDCHAR

STARTCHAR zero
ENCODING 48
SWIDTH 440 0
DWIDTH 9 0
BBX 8 15 1 0
BITMAP
0E
1F
33
63
63
63
63
C6
C6
C6
C6
C6
CC
F8
70
ENDCHAR

STARTCHAR one
ENCODING 49
SWIDTH 440 0
DWIDTH 10 0
BBX 6 15 1 0
BITMAP
0C
7C
0C
0C
0C
18
18
18
18
18
30
30
30
30
FC
ENDCHAR

STARTCHAR two
ENCODING 50
SWIDTH 440 0
DWIDTH 10 0
BBX 8 15 1 0
BITMAP
0E
1F
23
63
63
03
06
06
0C
18
30
60
71
FE
8E
ENDCHAR

STARTCHAR three
ENCODING 51
SWIDTH 440 0
DWIDTH 10 0
BBX 8 15 1 0
BITMAP
0E
1F
23
03
02
04
1E
07
03
03
03
02
04
F8
F0
ENDCHAR

STARTCHAR four
ENCODING 52
SWIDTH 440 0
DWIDTH 10 0
BBX 8 15 1 0
BITMAP
03
07
07
0B
13
16
26
46
46
FF
FF
0C
0C
0C
0C
ENDCHAR

STARTCHAR five
ENCODING 53
SWIDTH 440 0
DWIDTH 10 0
BBX 9 16 1 0
BITMAP
0080
1F00
1E00
1000
2000
2000
7800
FE00
0700
0300
0300
0300
0200
0400
F800
F000
ENDCHAR

STARTCHAR six
ENCODING 54
SWIDTH 440 0
DWIDTH 10 0
BBX 8 15 1 0
BITMAP
07
0E
10
20
60
60
C0
CE
FF
E3
C3
C3
C2
7C
38
ENDCHAR

STARTCHAR seven
ENCODING 55
SWIDTH 440 0
DWIDTH 10 0
BBX 8 16 1 0
BITMAP
40
FF
FF
03
06
06
0C
0C
18
18
30
30
60
60
60
60
ENDCHAR

STARTCHAR eight
ENCODING 56
SWIDTH 440 0
DWIDTH 10 0
BBX 8 15 1 0
BITMAP
0E
1F
23
63
72
3C
1C
2E
47
C3
C3
C2
C6
7C
38
ENDCHAR

STARTCHAR nine
ENCODING 57
SWIDTH 440 0
DWIDTH 10 0
BBX 8 15 1 0
BITMAP
1C
3E
43
C3
C3
C7
FF
73
03
06
06
04
08
70
E0
ENDCHAR

STARTCHAR colon
ENCODING 58
SWIDTH 260 0
DWIDTH 5 0
BBX 3 9 1 0
BITMAP
60
60
00
00
00
00
00
C0
C0
ENDCHAR

STARTCHAR semicolon
ENCODING 59
SWIDTH 240 0
DWIDTH 5 0
BBX 4 11 0 -2
BITMAP
30
30
00
00
00
00
00
60
60
40
80
ENDCHAR

STARTCHAR less
ENCODING 60
SWIDTH 520 0
DWIDTH 12 0
BBX 11 11 1 0
BITMAP
0060
01C0
0700
1C00
7000
C000
7000
1C00
0700
01C0
0060
ENDCHAR

STARTCHAR equal
ENCODING 61
SWIDTH 520 0
DWIDTH 12 0
BBX 10 5 1 3
BITMAP
FFC0
FFC0
0000
FFC0
FFC0
ENDCHAR

STARTCHAR greater
ENCODING 62
SWIDTH 520 0
DWIDTH 12 0
BBX 11 11 1 0
BITMAP
C000
7000
1C00
0700
01C0
0060
01C0
0700
1C00
7000
C000
ENDCHAR

STARTCHAR question
ENCODING 63
SWIDTH 380 0
DWIDTH 10 0
BBX 9 15 1 0
BITMAP
0E00
1F00
3180
0180
0180
0180
0300
3E00
3800
2000
4000
4000
0000
C000
C000
ENDCHAR

STARTCHAR at
ENCODING 64
SWIDTH 700 0
DWIDTH 17 0
BBX 15 15 1 0
BITMAP
07F0
1FFC
300C
61E6
47E6
CC66
C866
D8C4
D9C8
DEF0
D8E0
C000
6010
7FE0
1FC0
ENDCHAR

STARTCHAR A
ENCODING 65
SWIDTH 620 0
DWIDTH 15 0
BBX 15 15 -1 0
BITMAP
03FE
07FE
080E
181E
1836
0066
00C6
0186
0306
07FC
060C
0C0C
180C
700E
E00C
ENDCHAR

STARTCHAR B
ENCODING 66
SWIDTH 600 0
DWIDTH 14 0
BBX 13 15 0 0
BITMAP
1FE0
3FF0
4318
C618
C618
0630
07E0
0630
0C18
0C18
0C18
0C18
1830
7FC0
FF80
ENDCHAR

STARTCHAR C
ENCODING 67
SWIDTH 520 0
DWIDTH 14 0
BBX 13 16 1 -1
BITMAP
03F0
0FF8
0C18
3010
3000
6000
6000
C000
C000
C000
C000
C000
C030
6060
7FC0
1F00
ENDCHAR

STARTCHAR D
ENCODING 68
SWIDTH 700 0
DWIDTH 17 0
BBX 17 15 0 0
BITMAP
1FFC00
3FFF00
430300
C60180
C60180
060180
060180
060180
0C0300
0C0300
0C0600
0C0600
181800
7FF800
FFE000
ENDCHAR

STARTCHAR E
ENCODING 69
SWIDTH 620 0
DWIDTH 15 0
BBX 15 15 0 0
BITMAP
1FFC
3FFC
4308
C600
C600
0600
07E0
0600
0C00
0C00
0C06
0C06
1804
7FF8
FFF0
ENDCHAR

STARTCHAR F
ENCODING 70
SWIDTH 580 0
DWIDTH 12 0
BBX 16 18 -2 -2
BITMAP
0001
07FF
0FFE
10C0
3180
3180
0180
01F8
0180
0300
0300
0300
0300
0300
0200
0400
7800
F000
ENDCHAR

STARTCHAR G
ENCODING 71
SWIDTH 620 0
DWIDTH 15 0
BBX 14 20 1 -5
BITMAP
03F0
0FF8
0C18
3010
3000
6000
6000
C000
C0FC
C018
C018
C030
6070
7FE0
1F60
0040
00C0
0080
0F00
0E00
ENDCHAR

STARTCHAR H
ENCODING 72
SWIDTH 680 0
DWIDTH 18 0
BBX 21 18 0 0
BITMAP
000038
000070
000080
0FC180
1F8180
218180
630300
630300
030300
03FF00
030300
060600
060600
060600
060600
0C0600
780700
F00600
ENDCHAR

STARTCHAR I
ENCODING 73
SWIDTH 380 0
DWIDTH 8 0
BBX 9 15 0 0
BITMAP
1F80
0600
0C00
0C00
0C00
0C00
0C00
1800
1800
1800
1800
1800
1800
3000
FC00
ENDCHAR

STARTCHAR J
ENCODING 74
SWIDTH 400 0
DWIDTH 10 0
BBX 11 17 -1 -2
BITMAP
07E0
0FC0
1080
3180
3180
0180
0180
0180
0300
0300
0300
0300
0300
0200
0400
7800
F000
ENDCHAR

STARTCHAR K
ENCODING 75
SWIDTH 660 0
DWIDTH 16 0
BBX 21 18 0 -3
BITMAP
1F8380
3F0F00
421800
C63000
C66000
06C000
078000
0F0000
0F8000
0DC000
0CE000
0C7000
0C3800
181C00
7E0E00
000718
000398
0000E0
ENDCHAR

STARTCHAR L
ENCODING 76
SWIDTH 580 0
DWIDTH 14 0
BBX 14 15 0 0
BITMAP
01C0
0380
0400
0C00
0C00
0C00
0C00
0C00
1800
1800
1800
1800
1004
7FF8
FFF0
ENDCHAR

STARTCHAR M
ENCODING 77
SWIDTH 840 0
DWIDTH 19 0
BBX 23 18 0 0
BITMAP
00000E
00001C
000020
0F8060
1F80E0
2180C0
6181C0
6183C0
0382C0
03C4C0
02CC80
06C980
067180
047180
0C6180
084180
F001C0
E00180
ENDCHAR

STARTCHAR N
ENCODING 78
SWIDTH 700 0
DWIDTH 17 0
BBX 21 22 0 -4
BITMAP
000038
000070
000080
1F0180
3F0180
438100
C38300
C6C300
06C300
066300
066200
046600
0C3600
0C3600
0C3400
081C00
F01C00
E00C00
000C00
000440
0003C0
000180
ENDCHAR

STARTCHAR O
ENCODING 79
SWIDTH 600 0
DWIDTH 16 0
BBX 14 15 1 0
BITMAP
03E0
0FF8
0C18
300C
300C
600C
600C
C00C
C018
C018
C030
C030
60C0
7FC0
1F00
ENDCHAR

STARTCHAR P
ENCODING 80
SWIDTH 540 0
DWIDTH 13 0
BBX 13 15 0 0
BITMAP
1FE0
3FF0
4318
C618
C618
0618
0630
0660
0F80
0C00
0C00
0C00
0C00
1800
7E00
ENDCHAR

STARTCHAR Q
ENCODING 81
SWIDTH 600 0
DWIDTH 16 0
BBX 15 19 1 -4
BITMAP
03E0
0FF8
0C18
300C
300C
600C
600C
C00C
C018
C018
C030
C030
60C0
7FC0
1F00
0300
0186
00FE
003C
ENDCHAR

STARTCHAR R
ENCODING 82
SWIDTH 600 0
DWIDTH 15 0
BBX 17 19 0 -4
BITMAP
1FE000
3FF000
431800
C61800
C61800
063000
07C000
0EC000
0C6000
0C6000
0C6000
0C3000
0C3000
183000
7E1800
001800
000880
000780
000300
ENDCHAR

STARTCHAR S
ENCODING 83
SWIDTH 460 0
DWIDTH 12 0
BBX 13 16 0 -1
BITMAP
00F0
03F8
0618
0C10
0C00
0600
0700
0380
01C0
00C0
0060
0060
C060
C0C0
7F80
3E00
ENDCHAR

STARTCHAR T
ENCODING 84
SWIDTH 500 0
DWIDTH 12 0
BBX 15 16 0 0
BITMAP
0002
1FFE
3FFC
4180
C180
C180
0180
0180
0300
0300
0300
0300
0300
0300
0600
1F80
ENDCHAR

STARTCHAR U
ENCODING 85
SWIDTH 740 0
DWIDTH 18 0
BBX 17 15 0 0
BITMAP
1F8180
3F0380
430180
C60300
C60300
060300
0C0300
0C0300
0C0600
0C0600
0C0600
0C0E00
061E00
07F700
03E600
ENDCHAR

STARTCHAR V
ENCODING 86
SWIDTH 640 0
DWIDTH 16 0
BBX 16 17 0 0
BITMAP
0006
0002
1F03
3F03
4303
C303
C302
0306
0304
0308
0318
0310
0320
0360
03C0
0380
0300
ENDCHAR

STARTCHAR W
ENCODING 87
SWIDTH 880 0
DWIDTH 22 0
BBX 22 19 0 0
BITMAP
000018
000018
00000C
00000C
1E060C
3E0E0C
460E08
C61E18
C61610
063630
062620
066660
064640
06C6C0
068680
078780
070700
070700
060600
ENDCHAR

STARTCHAR X
ENCODING 88
SWIDTH 560 0
DWIDTH 14 0
BBX 17 15 0 0
BITMAP
0C0180
1E0380
060C00
071800
033000
036000
01C000
01C000
01C000
036000
066000
0C7000
183000
E03C00
C01800
ENDCHAR

STARTCHAR Y
ENCODING 89
SWIDTH 560 0
DWIDTH 14 0
BBX 18 20 1 -3
BITMAP
0001C0
180380
3E0400
460800
C31800
C31000
C1B000
01A000
00E000
00C000
00C000
018000
018000
018000
030000
030000
020000
040000
780000
700000
ENDCHAR

STARTCHAR Z
ENCODING 90
SWIDTH 620 0
DWIDTH 16 0
BBX 16 15 0 0
BITMAP
1FFE
1FFE
200C
0018
0030
0060
00C0
0180
0300
0601
0C03
1803
3002
7FFC
FFF8
ENDCHAR

STARTCHAR bracketleft
ENCODING 91
SWIDTH 240 0
DWIDTH 7 0
BBX 8 21 0 -4
BITMAP
0F
0C
18
18
18
18
18
18
30
30
30
30
30
30
60
60
60
60
60
C0
F0
ENDCHAR

STARTCHAR backslash
ENCODING 92
SWIDTH 480 0
DWIDTH 15 0
BBX 8 15 4 0
BITMAP
80
C0
40
60
20
30
10
18
08
0C
04
06
02
03
01
ENDCHAR

STARTCHAR bracketright
ENCODING 93
SWIDTH 320 0
DWIDTH 8 0
BBX 8 21 0 -4
BITMAP
0F
03
06
06
06
06
06
0C
0C
0C
0C
0C
0C
18
18
18
18
18
18
30
F0
ENDCHAR

STARTCHAR asciicircum
ENCODING 94
SWIDTH 520 0
DWIDTH 12 0
BBX 7 7 3 10
BITMAP
10
38
28
6C
44
C6
82
ENDCHAR

STARTCHAR underscore
ENCODING 95
SWIDTH 500 0
DWIDTH 13 0
BBX 13 1 -1 -3
BITMAP
FFF8
ENDCHAR

STARTCHAR quoteleft
ENCODING 96
SWIDTH 240 0
DWIDTH 4 0
BBX 3 5 1 10
BITMAP
20
40
C0
C0
C0
ENDCHAR

STARTCHAR a
ENCODING 97
SWIDTH 420 0
DWIDTH 11 0
BBX 10 10 1 0
BITMAP
0F80
3F80
6180
4180
C300
C300
C700
CB40
F380
6300
ENDCHAR

STARTCHAR b
ENCODING 98
SWIDTH 420 0
DWIDTH 11 0
BBX 9 17 1 0
BITMAP
0700
0E00
1000
3000
3000
3000
3000
6300
6780
6980
7180
6180
C180
C100
C300
FE00
F800
ENDCHAR

STARTCHAR c
ENCODING 99
SWIDTH 340 0
DWIDTH 8 0
BBX 7 10 1 0
BITMAP
0E
3E
60
40
C0
C0
C0
C6
FC
70
ENDCHAR

STARTCHAR d
ENCODING 100
SWIDTH 440 0
DWIDTH 11 0
BBX 14 17 1 0
BITMAP
001C
0038
0040
00C0
00C0
00C0
00C0
0F80
3F80
6180
4180
C300
C300
C700
CB40
F380
6300
ENDCHAR

STARTCHAR e
ENCODING 101
SWIDTH 340 0
DWIDTH 9 0
BBX 7 10 1 0
BITMAP
0C
3E
66
4C
D8
E0
C2
C6
FC
70
ENDCHAR

STARTCHAR f
ENCODING 102
SWIDTH 320 0
DWIDTH 7 0
BBX 13 22 -3 -5
BITMAP
0038
0070
0080
0180
0180
0180
0180
0FE0
0300
0300
0300
0300
0600
0600
0600
0600
0C00
0C00
0C00
0800
7000
E000
ENDCHAR

STARTCHAR g
ENCODING 103
SWIDTH 400 0
DWIDTH 11 0
BBX 11 15 -1 -5
BITMAP
03E0
0FE0
1860
1060
30C0
30C0
31C0
32C0
3CC0
1880
6180
C180
C300
FE00
7C00
ENDCHAR

STARTCHAR h
ENCODING 104
SWIDTH 440 0
DWIDTH 11 0
BBX 10 17 1 0
BITMAP
0700
0E00
1000
3000
3000
3000
3000
6180
6380
6F80
7180
6180
4100
C300
C340
C380
C300
ENDCHAR

STARTCHAR i
ENCODING 105
SWIDTH 240 0
DWIDTH 7 0
BBX 5 14 1 0
BITMAP
10
30
20
00
10
30
70
B0
30
60
60
68
70
60
ENDCHAR

STARTCHAR j
ENCODING 106
SWIDTH 220 0
DWIDTH 6 0
BBX 8 19 -3 -5
BITMAP
01
03
02
00
01
03
07
0B
03
06
06
06
06
0C
0C
0C
08
70
E0
ENDCHAR

STARTCHAR k
ENCODING 107
SWIDTH 440 0
DWIDTH 10 0
BBX 12 21 1 -4
BITMAP
0700
0E00
1000
3000
3000
3000
3180
6780
6C00
7800
7000
7800
CC00
CC00
C600
C600
C300
0300
0190
00F0
0060
ENDCHAR

STARTCHAR l
ENCODING 108
SWIDTH 240 0
DWIDTH 6 0
BBX 8 17 1 0
BITMAP
07
0E
10
30
30
30
30
60
60
60
60
60
C0
C0
D0
E0
C0
ENDCHAR

STARTCHAR m
ENCODING 109
SWIDTH 620 0
DWIDTH 17 0
BBX 17 10 0 0
BITMAP
30C300
71C700
B7DF00
38E300
30C300
208200
618600
618680
618700
618600
ENDCHAR

STARTCHAR n
ENCODING 110
SWIDTH 460 0
DWIDTH 11 0
BBX 11 10 0 0
BITMAP
30C0
71C0
B7C0
38C0
30C0
2080
6180
61A0
61C0
6180
ENDCHAR

STARTCHAR o
ENCODING 111
SWIDTH 400 0
DWIDTH 10 0
BBX 8 10 1 0
BITMAP
0E
3F
63
43
C3
C3
C2
C6
FC
70
ENDCHAR

STARTCHAR p
ENCODING 112
SWIDTH 440 0
DWIDTH 11 0
BBX 12 15 -2 -5
BITMAP
0C60
1CF0
2D30
0E30
0C30
1830
1820
1860
1FC0
1F00
3000
3000
3000
6000
F800
ENDCHAR

STARTCHAR q
ENCODING 113
SWIDTH 400 0
DWIDTH 11 0
BBX 9 15 1 -5
BITMAP
0F80
3F80
6180
4180
C300
C300
C700
CB00
F300
6300
0600
0600
0600
0C00
3F00
ENDCHAR

STARTCHAR r
ENCODING 114
SWIDTH 300 0
DWIDTH 7 0
BBX 8 10 0 0
BITMAP
33
77
B8
30
30
30
60
60
60
60
ENDCHAR

STARTCHAR s
ENCODING 115
SWIDTH 320 0
DWIDTH 8 0
BBX 8 10 0 0
BITMAP
07
1E
30
30
1C
0E
06
C6
E8
70
ENDCHAR

STARTCHAR t
ENCODING 116
SWIDTH 320 0
DWIDTH 6 0
BBX 6 13 1 0
BITMAP
10
30
30
FC
60
60
60
60
C0
C0
D0
E0
C0
ENDCHAR

STARTCHAR u
ENCODING 117
SWIDTH 460 0
DWIDTH 11 0
BBX 11 10 0 0
BITMAP
30C0
70C0
B0C0
30C0
2080
6180
6380
65A0
79C0
6180
ENDCHAR

STARTCHAR v
ENCODING 118
SWIDTH 440 0
DWIDTH 10 0
BBX 10 11 0 0
BITMAP
0180
7CC0
F8C0
90C0
20C0
60C0
6080
6180
6300
7E00
3C00
ENDCHAR

STARTCHAR w
ENCODING 119
SWIDTH 680 0
DWIDTH 15 0
BBX 15 11 0 0
BITMAP
000C
7CC6
F8C6
90C6
2186
6186
6184
618C
6298
7EF0
3C60
ENDCHAR

STARTCHAR x
ENCODING 120
SWIDTH 420 0
DWIDTH 10 0
BBX 11 14 1 -4
BITMAP
6180
F380
3600
1C00
1800
3800
6C00
CC00
CC00
C600
0600
0300
01E0
00E0
ENDCHAR

STARTCHAR y
ENCODING 121
SWIDTH 400 0
DWIDTH 11 0
BBX 10 15 0 -5
BITMAP
30C0
70C0
B0C0
30C0
2080
6180
6380
6580
7980
6180
0300
0300
0200
7C00
7800
ENDCHAR

STARTCHAR z
ENCODING 122
SWIDTH 440 0
DWIDTH 11 0
BBX 11 10 0 0
BITMAP
1FC0
3FC0
2180
0300
0600
0C00
1860
3060
7F80
FF00
ENDCHAR

STARTCHAR braceleft
ENCODING 123
SWIDTH 240 0
DWIDTH 8 0
BBX 8 21 1 -4
BITMAP
07
0C
18
10
10
10
20
20
20
60
C0
60
20
20
20
40
40
40
40
60
38
ENDCHAR

STARTCHAR bar
ENCODING 124
SWIDTH 520 0
DWIDTH 11 0
BBX 1 15 5 0
BITMAP
80
80
80
80
80
80
80
80
80
80
80
80
80
80
80
ENDCHAR

STARTCHAR braceright
ENCODING 125
SWIDTH 240 0
DWIDTH 8 0
BBX 8 21 0 -4
BITMAP
1C
06
02
02
02
02
04
04
04
06
03
06
04
04
04
08
08
08
18
30
E0
ENDCHAR

STARTCHAR asciitilde
ENCODING 126
SWIDTH 520 0
DWIDTH 12 0
BBX 10 3 1 4
BITMAP
38C0
7F80
C700
ENDCHAR

STARTCHAR exclamdown
ENCODING 161
SWIDTH 280 0
DWIDTH 6 0
BBX 5 15 0 -5
BITMAP
18
18
00
30
30
30
30
60
60
60
60
C0
C0
C0
C0
ENDCHAR

STARTCHAR cent
ENCODING 162
SWIDTH 440 0
DWIDTH 9 0
BBX 9 15 1 0
BITMAP
0400
0400
0F00
3F80
6980
4800
C800
C800
D000
D000
5300
7E00
3C00
1000
1000
ENDCHAR

STARTCHAR sterling
ENCODING 163
SWIDTH 480 0
DWIDTH 9 0
BBX 13 16 -2 -1
BITMAP
00F0
01E0
0200
0600
0600
0600
0600
1FC0
0C00
0C00
0C18
0C18
1810
3FE0
7FC0
8000
ENDCHAR

STARTCHAR currency
ENCODING 164
SWIDTH 600 0
DWIDTH 9 0
BBX 11 9 0 4
BITMAP
CE60
71C0
2080
4040
4040
4040
2080
71C0
CE60
ENDCHAR

STARTCHAR yen
ENCODING 165
SWIDTH 480 0
DWIDTH 9 0
BBX 13 15 -1 0
BITMAP
7038
F860
18C0
0C80
0D80
0500
0700
3FE0
0600
7FC0
0400
0400
0C00
0C00
3F00
ENDCHAR

STARTCHAR brokenbar
ENCODING 166
SWIDTH 520 0
DWIDTH 11 0
BBX 1 15 5 0
BITMAP
80
80
80
80
80
80
00
00
00
80
80
80
80
80
80
ENDCHAR

STARTCHAR section
ENCODING 167
SWIDTH 420 0
DWIDTH 10 0
BBX 10 19 0 -4
BITMAP
03C0
0780
0C00
1800
1800
3C00
6E00
6700
6380
7180
3980
1D80
0F00
0600
0600
0600
0C00
F800
F000
ENDCHAR

STARTCHAR dieresis
ENCODING 168
SWIDTH 360 0
DWIDTH 9 0
BBX 6 2 1 12
BITMAP
CC
CC
ENDCHAR

STARTCHAR copyright
ENCODING 169
SWIDTH 740 0
DWIDTH 19 0
BBX 17 17 1 0
BITMAP
07F000
1C1C00
300600
61E300
473100
C41980
8C0080
880080
880080
880080
8C0080
C41980
477100
61C300
300600
1C1C00
07F000
ENDCHAR

STARTCHAR ordfeminine
ENCODING 170
SWIDTH 260 0
DWIDTH 8 0
BBX 6 8 1 7
BITMAP
3C
4C
CC
D8
FC
C8
00
FC
ENDCHAR

STARTCHAR guillemotleft
ENCODING 171
SWIDTH 340 0
DWIDTH 9 0
BBX 8 7 0 2
BITMAP
1B
36
6C
D8
6C
36
1B
ENDCHAR

STARTCHAR logicalnot
ENCODING 172
SWIDTH 600 0
DWIDTH 12 0
BBX 11 7 0 1
BITMAP
FFE0
FFE0
0060
0060
0060
0060
0060
ENDCHAR

STARTCHAR hyphen
ENCODING 173
SWIDTH 280 0
DWIDTH 7 0
BBX 5 2 1 4
BITMAP
78
F0
ENDCHAR

STARTCHAR registered
ENCODING 174
SWIDTH 740 0
DWIDTH 19 0
BBX 17 17 1 0
BITMAP
07F000
1C1C00
300600
67E300
423100
C21180
821080
823080
83E080
824080
822080
C23180
471900
600300
300600
1C1C00
07F000
ENDCHAR

STARTCHAR macron
ENCODING 175
SWIDTH 440 0
DWIDTH 11 0
BBX 8 2 2 12
BITMAP
7F
FE
ENDCHAR

STARTCHAR degree
ENCODING 176
SWIDTH 400 0
DWIDTH 9 0
BBX 8 7 1 8
BITMAP
3C
66
C3
C3
C3
66
3C
ENDCHAR

STARTCHAR plusminus
ENCODING 177
SWIDTH 520 0
DWIDTH 12 0
BBX 10 9 1 0
BITMAP
0C00
0C00
FFC0
FFC0
0C00
0C00
0000
FFC0
FFC0
ENDCHAR

STARTCHAR twosuperior
ENCODING 178
SWIDTH 264 0
DWIDTH 5 0
BBX 6 9 0 6
BITMAP
38
6C
4C
18
30
60
C8
F8
B0
ENDCHAR

STARTCHAR threesuperior
ENCODING 179
SWIDTH 264 0
DWIDTH 5 0
BBX 6 9 0 6
BITMAP
38
6C
4C
18
30
18
18
98
F0
ENDCHAR

STARTCHAR acute
ENCODING 180
SWIDTH 300 0
DWIDTH 7 0
BBX 5 4 0 11
BITMAP
18
30
60
C0
ENDCHAR

STARTCHAR mu
ENCODING 181
SWIDTH 460 0
DWIDTH 11 0
BBX 12 15 -1 -5
BITMAP
1860
3860
5860
1860
1040
30C0
31C0
32D0
3CE0
70C0
6000
6000
4000
C000
8000
ENDCHAR

STARTCHAR paragraph
ENCODING 182
SWIDTH 500 0
DWIDTH 14 0
BBX 16 20 -1 -5
BITMAP
01FF
07F8
0FF0
1FF0
1FE0
1FE0
1FE0
0FC0
03C0
00C0
00C0
00C0
0180
0180
0180
0300
C300
E300
7E00
3800
ENDCHAR

STARTCHAR periodcentered
ENCODING 183
SWIDTH 220 0
DWIDTH 5 0
BBX 2 2 1 4
BITMAP
C0
C0
ENDCHAR

STARTCHAR cedilla
ENCODING 184
SWIDTH 300 0
DWIDTH 7 0
BBX 6 5 1 -5
BITMAP
10
08
8C
78
30
ENDCHAR

STARTCHAR onesuperior
ENCODING 185
SWIDTH 264 0
DWIDTH 5 0
BBX 4 9 1 6
BITMAP
10
70
30
30
20
60
60
60
F0
ENDCHAR

STARTCHAR ordmasculine
ENCODING 186
SWIDTH 260 0
DWIDTH 8 0
BBX 6 8 1 7
BITMAP
18
2C
4C
C8
D0
60
00
FC
ENDCHAR

STARTCHAR guillemotright
ENCODING 187
SWIDTH 380 0
DWIDTH 9 0
BBX 8 7 0 2
BITMAP
D8
6C
36
1B
36
6C
D8
ENDCHAR

STARTCHAR onequarter
ENCODING 188
SWIDTH 660 0
DWIDTH 14 0
BBX 12 15 1 0
BITMAP
1020
7060
3040
3080
2180
6100
6210
6630
F470
08B0
1920
1260
23F0
6060
4060
ENDCHAR

STARTCHAR onehalf
ENCODING 189
SWIDTH 660 0
DWIDTH 14 0
BBX 13 15 1 0
BITMAP
1020
7060
3040
3080
2180
6100
6270
66D8
F498
0830
1860
10C0
2190
61F0
4160
ENDCHAR

STARTCHAR threequarters
ENCODING 190
SWIDTH 660 0
DWIDTH 14 0
BBX 13 15 0 0
BITMAP
3810
6C30
4C20
1840
30C0
1880
1908
9B18
F238
0458
0C90
0930
11F8
3030
2030
ENDCHAR

STARTCHAR questiondown
ENCODING 191
SWIDTH 400 0
DWIDTH 10 0
BBX 9 15 0 -5
BITMAP
0180
0180
0000
0100
0100
0200
0E00
3E00
6000
C000
C000
C000
C600
7C00
3800
ENDCHAR

STARTCHAR Agrave
ENCODING 192
SWIDTH 620 0
DWIDTH 15 0
BBX 15 15 -1 0
BITMAP
0060
0030
0018
000C
0000
03FE
07FE
0836
1866
1986
03FC
0E0C
1C0C
700E
E00C
ENDCHAR

STARTCHAR Aacute
ENCODING 193
SWIDTH 620 0
DWIDTH 15 0
BBX 15 15 -1 0
BITMAP
000C
0018
0030
0060
0000
03FE
07FE
0836
1866
1986
03FC
0E0C
1C0C
700E
E00C
ENDCHAR

STARTCHAR Acircumflex
ENCODING 194
SWIDTH 620 0
DWIDTH 15 0
BBX 15 15 -1 0
BITMAP
0018
0038
006C
00CC
0000
03FE
07FE
0836
1866
1986
03FC
0E0C
1C0C
700E
E00C
ENDCHAR

STARTCHAR Atilde
ENCODING 195
SWIDTH 620 0
DWIDTH 15 0
BBX 15 15 -1 0
BITMAP
0062
00FC
0118
0000
0000
03FE
07FE
0836
1866
1986
03FC
0E0C
1C0C
700E
E00C
ENDCHAR

STARTCHAR Adieresis
ENCODING 196
SWIDTH 620 0
DWIDTH 15 0
BBX 15 15 -1 0
BITMAP
00CC
00CC
0000
0000
0000
03FE
07FE
0836
1866
1986
03FC
0E0C
1C0C
700E
E00C
ENDCHAR

STARTCHAR Aring
ENCODING 197
SWIDTH 620 0
DWIDTH 15 0
BBX 15 15 -1 0
BITMAP
000C
0016
0036
0034
0018
03FE
07FE
0836
1866
1986
03FC
0E0C
1C0C
700E
E00C
ENDCHAR

STARTCHAR AE
ENCODING 198
SWIDTH 740 0
DWIDTH 23 0
BBX 22 15 1 0
BITMAP
001FF8
001FF8
003C10
006C00
00CC00
018C00
03FFC0
030C00
061800
0C1800
18180C
18180C
301008
607FF0
E0FFE0
ENDCHAR

STARTCHAR Ccedilla
ENCODING 199
SWIDTH 520 0
DWIDTH 14 0
BBX 13 20 1 -5
BITMAP
03F0
0FF8
0C18
3010
3000
6000
6000
C000
C000
C000
C000
C000
C030
6060
7FC0
1F00
0800
8C00
7800
3000
ENDCHAR

STARTCHAR Egrave
ENCODING 200
SWIDTH 620 0
DWIDTH 15 0
BBX 15 15 0 0
BITMAP
0600
0300
0180
00C0
0000
1FFC
3FFC
4608
CC00
CFC0
0C06
0C06
1804
7FF8
FFF0
ENDCHAR

STARTCHAR Eacute
ENCODING 201
SWIDTH 620 0
DWIDTH 15 0
BBX 15 15 0 0
BITMAP
0030
0060
00C0
0180
0000
1FFC
3FFC
4608
CC00
CFC0
0C06
0C06
1804
7FF8
FFF0
ENDCHAR

STARTCHAR Ecircumflex
ENCODING 202
SWIDTH 620 0
DWIDTH 15 0
BBX 15 15 0 0
BITMAP
0030
0070
00D8
0198
0000
1FFC
3FFC
4608
CC00
CFC0
0C06
0C06
1804
7FF8
FFF0
ENDCHAR

STARTCHAR Edieresis
ENCODING 203
SWIDTH 620 0
DWIDTH 15 0
BBX 15 15 0 0
BITMAP
0198
0198
0000
0000
0000
1FFC
3FFC
4608
CC00
CFC0
0C06
0C06
1804
7FF8
FFF0
ENDCHAR

STARTCHAR Igrave
ENCODING 204
SWIDTH 380 0
DWIDTH 8 0
BBX 9 15 0 0
BITMAP
3000
1800
0C00
0600
0000
1F80
0600
0C00
0C00
0C00
1800
1800
1800
3000
FC00
ENDCHAR

STARTCHAR Iacute
ENCODING 205
SWIDTH 380 0
DWIDTH 8 0
BBX 9 15 0 0
BITMAP
0180
0300
0600
0C00
0000
1F80
0600
0C00
0C00
0C00
1800
1800
1800
3000
FC00
ENDCHAR

STARTCHAR Icircumflex
ENCODING 206
SWIDTH 380 0
DWIDTH 8 0
BBX 10 15 0 0
BITMAP
0180
0380
06C0
0CC0
0000
1F80
0600
0C00
0C00
0C00
1800
1800
1800
3000
FC00
ENDCHAR

STARTCHAR Idieresis
ENCODING 207
SWIDTH 380 0
DWIDTH 8 0
BBX 10 15 0 0
BITMAP
0CC0
0CC0
0000
0000
0000
1F80
0600
0C00
0C00
0C00
1800
1800
1800
3000
FC00
ENDCHAR

STARTCHAR Eth
ENCODING 208
SWIDTH 700 0
DWIDTH 17 0
BBX 17 15 0 0
BITMAP
1FFC00
3FFF00
430300
C60180
C60180
060180
060180
1F8180
0C0300
0C0300
0C0600
0C0600
181800
7FF800
FFE000
ENDCHAR

STARTCHAR Ntilde
ENCODING 209
SWIDTH 700 0
DWIDTH 17 0
BBX 21 19 0 -4
BITMAP
003100
007E00
008C00
000000
000038
1F8070
3F8180
46C300
C6C300
CC6600
0C6600
0C3400
081C00
F01C00
E00C00
000C00
000440
0003C0
000180
ENDCHAR

STARTCHAR Ograve
ENCODING 210
SWIDTH 600 0
DWIDTH 16 0
BBX 14 15 1 0
BITMAP
0C00
0600
0300
0180
0000
03E0
0FF8
3C18
700C
600C
C018
C018
6060
7FE0
1F00
ENDCHAR

STARTCHAR Oacute
ENCODING 211
SWIDTH 600 0
DWIDTH 16 0
BBX 14 15 1 0
BITMAP
0030
0060
00C0
0180
0000
03E0
0FF8
3C18
700C
600C
C018
C018
6060
7FE0
1F00
ENDCHAR

STARTCHAR Ocircumflex
ENCODING 212
SWIDTH 600 0
DWIDTH 16 0
BBX 14 15 1 0
BITMAP
0060
00E0
01B0
0330
0000
03E0
0FF8
3C18
700C
600C
C018
C018
6060
7FE0
1F00
ENDCHAR

STARTCHAR Otilde
ENCODING 213
SWIDTH 600 0
DWIDTH 16 0
BBX 14 15 1 0
BITMAP
0188
03F0
0460
0000
0000
03E0
0FF8
3C18
700C
600C
C018
C018
6060
7FE0
1F00
ENDCHAR

STARTCHAR Odieresis
ENCODING 214
SWIDTH 600 0
DWIDTH 16 0
BBX 14 15 1 0
BITMAP
0198
0198
0000
0000
0000
03E0
0FF8
3C18
700C
600C
C018
C018
6060
7FE0
1F00
ENDCHAR

STARTCHAR multiply
ENCODING 215
SWIDTH 520 0
DWIDTH 12 0
BBX 9 10 2 0
BITMAP
8080
C180
6300
3600
1C00
1C00
3600
6300
C180
8080
ENDCHAR

STARTCHAR Oslash
ENCODING 216
SWIDTH 660 0
DWIDTH 15 0
BBX 16 16 -1 0
BITMAP
0003
00FE
03FC
030E
0C1E
0C36
1866
18C6
3186
330C
360C
3C18
3818
3860
7FE0
CF80
ENDCHAR

STARTCHAR Ugrave
ENCODING 217
SWIDTH 740 0
DWIDTH 18 0
BBX 17 15 0 0
BITMAP
00C000
006000
003000
001800
000000
1F8180
3F0380
430180
C60300
C60300
0C0600
0C0E00
061E00
07F700
03E600
ENDCHAR

STARTCHAR Uacute
ENCODING 218
SWIDTH 740 0
DWIDTH 18 0
BBX 17 15 0 0
BITMAP
000600
000C00
001800
003000
000000
1F8180
3F0380
430180
C60300
C60300
0C0600
0C0E00
061E00
07F700
03E600
ENDCHAR

STARTCHAR Ucircumflex
ENCODING 219
SWIDTH 740 0
DWIDTH 18 0
BBX 17 15 0 0
BITMAP
000C00
001C00
003600
006600
000000
1F8180
3F0380
430180
C60300
C60300
0C0600
0C0E00
061E00
07F700
03E600
ENDCHAR

STARTCHAR Udieresis
ENCODING 220
SWIDTH 740 0
DWIDTH 18 0
BBX 17 15 0 0
BITMAP
006600
006600
000000
000000
000000
1F8180
3F0380
430180
C60300
C60300
0C0600
0C0E00
061E00
07F700
03E600
ENDCHAR

STARTCHAR Yacute
ENCODING 221
SWIDTH 560 0
DWIDTH 14 0
BBX 18 18 1 -3
BITMAP
001800
003000
006000
00C1C0
180380
3E0400
460800
C31800
C31000
01B000
01A000
00E000
00C000
018000
018000
030000
3E0000
380000
ENDCHAR

STARTCHAR Thorn
ENCODING 222
SWIDTH 540 0
DWIDTH 13 0
BBX 13 15 0 0
BITMAP
1FE0
3F80
4300
C3E0
C7F0
0718
0618
0618
0E18
0C30
0C60
0D80
0C00
1800
7E00
ENDCHAR

STARTCHAR germandbls
ENCODING 223
SWIDTH 420 0
DWIDTH 11 0
BBX 14 22 -4 -5
BITMAP
0038
007C
008C
0184
0184
0188
0198
07B0
0330
0338
031C
030C
0604
0604
060C
06F8
0CF0
0C00
0C00
0800
7000
E000
ENDCHAR

STARTCHAR agrave
ENCODING 224
SWIDTH 420 0
DWIDTH 11 0
BBX 10 15 1 0
BITMAP
3000
1800
0C00
0600
0000
0F80
3F80
6180
4180
C300
C300
C700
CB40
F380
6300
ENDCHAR

STARTCHAR aacute
ENCODING 225
SWIDTH 420 0
DWIDTH 11 0
BBX 10 15 1 0
BITMAP
0180
0300
0600
0C00
0000
0F80
3F80
6180
4180
C300
C300
C700
CB40
F380
6300
ENDCHAR

STARTCHAR acircumflex
ENCODING 226
SWIDTH 420 0
DWIDTH 11 0
BBX 10 15 1 0
BITMAP
0600
0E00
1B00
3300
0000
0F80
3F80
6180
4180
C300
C300
C700
CB40
F380
6300
ENDCHAR

STARTCHAR atilde
ENCODING 227
SWIDTH 420 0
DWIDTH 11 0
BBX 11 14 1 0
BITMAP
0620
0FC0
1180
0000
0F80
3F80
6180
4180
C300
C300
C700
CB40
F380
6300
ENDCHAR

STARTCHAR adieresis
ENCODING 228
SWIDTH 420 0
DWIDTH 11 0
BBX 10 14 1 0
BITMAP
0CC0
0CC0
0000
0000
0F80
3F80
6180
4180
C300
C300
C700
CB40
F380
6300
ENDCHAR

STARTCHAR aring
ENCODING 229
SWIDTH 420 0
DWIDTH 11 0
BBX 10 15 1 0
BITMAP
0300
0580
0D80
0D00
0600
0F80
3F80
6180
4180
C300
C300
C700
CB40
F380
6300
ENDCHAR

STARTCHAR ae
ENCODING 230
SWIDTH 540 0
DWIDTH 15 0
BBX 13 10 1 0
BITMAP
0CB0
3FF8
6398
4130
C360
C380
C708
CB18
F3F0
63C0
ENDCHAR

STARTCHAR ccedilla
ENCODING 231
SWIDTH 340 0
DWIDTH 8 0
BBX 7 15 1 -5
BITMAP
0E
3E
60
40
C0
C0
C0
C6
FC
70
10
08
8C
78
30
ENDCHAR

STARTCHAR egrave
ENCODING 232
SWIDTH 340 0
DWIDTH 9 0
BBX 7 15 1 0
BITMAP
60
30
18
0C
00
0C
3E
66
4C
D8
E0
C2
C6
FC
70
ENDCHAR

STARTCHAR eacute
ENCODING 233
SWIDTH 340 0
DWIDTH 9 0
BBX 8 15 1 0
BITMAP
03
06
0C
18
00
0C
3E
66
4C
D8
E0
C2
C6
FC
70
ENDCHAR

STARTCHAR ecircumflex
ENCODING 234
SWIDTH 340 0
DWIDTH 9 0
BBX 8 15 1 0
BITMAP
06
0E
1B
33
00
0C
3E
66
4C
D8
E0
C2
C6
FC
70
ENDCHAR

STARTCHAR edieresis
ENCODING 235
SWIDTH 340 0
DWIDTH 9 0
BBX 8 14 1 0
BITMAP
33
33
00
00
0C
3E
66
4C
D8
E0
C2
C6
FC
70
ENDCHAR

STARTCHAR igrave
ENCODING 236
SWIDTH 240 0
DWIDTH 6 0
BBX 5 15 1 0
BITMAP
C0
60
30
18
00
10
30
70
B0
30
60
60
68
70
60
ENDCHAR

STARTCHAR iacute
ENCODING 237
SWIDTH 240 0
DWIDTH 6 0
BBX 5 15 1 0
BITMAP
18
30
60
C0
00
10
30
70
B0
30
60
60
68
70
60
ENDCHAR

STARTCHAR icircumflex
ENCODING 238
SWIDTH 240 0
DWIDTH 6 0
BBX 6 15 1 0
BITMAP
18
38
6C
CC
00
10
30
70
B0
30
60
60
68
70
60
ENDCHAR

STARTCHAR idieresis
ENCODING 239
SWIDTH 240 0
DWIDTH 6 0
BBX 6 14 1 0
BITMAP
CC
CC
00
00
10
30
70
B0
30
60
60
68
70
60
ENDCHAR

STARTCHAR eth
ENCODING 240
SWIDTH 400 0
DWIDTH 10 0
BBX 10 16 1 0
BITMAP
1C00
66C0
0700
0E00
3200
0300
1B00
3300
6300
4300
C300
C300
C200
C600
FC00
7000
ENDCHAR

STARTCHAR ntilde
ENCODING 241
SWIDTH 460 0
DWIDTH 11 0
BBX 11 14 0 0
BITMAP
0620
0FC0
1180
0000
30C0
71C0
B7C0
38C0
30C0
2080
6180
61A0
61C0
6180
ENDCHAR

STARTCHAR ograve
ENCODING 242
SWIDTH 400 0
DWIDTH 10 0
BBX 8 15 1 0
BITMAP
60
30
18
0C
00
0E
3F
63
43
C3
C3
C2
C6
FC
70
ENDCHAR

STARTCHAR oacute
ENCODING 243
SWIDTH 400 0
DWIDTH 10 0
BBX 9 15 1 0
BITMAP
0180
0300
0600
0C00
0000
0E00
3F00
6300
4300
C300
C300
C200
C600
FC00
7000
ENDCHAR

STARTCHAR ocircumflex
ENCODING 244
SWIDTH 400 0
DWIDTH 10 0
BBX 8 15 1 0
BITMAP
0C
1C
36
66
00
0E
3F
63
43
C3
C3
C2
C6
FC
70
ENDCHAR

STARTCHAR otilde
ENCODING 245
SWIDTH 400 0
DWIDTH 10 0
BBX 10 14 1 0
BITMAP
0C40
1F80
2300
0000
0E00
3F00
6300
4300
C300
C300
C200
C600
FC00
7000
ENDCHAR

STARTCHAR odieresis
ENCODING 246
SWIDTH 400 0
DWIDTH 10 0
BBX 9 14 1 0
BITMAP
1980
1980
0000
0000
0E00
3F00
6300
4300
C300
C300
C200
C600
FC00
7000
ENDCHAR

STARTCHAR divide
ENCODING 247
SWIDTH 520 0
DWIDTH 12 0
BBX 10 8 1 1
BITMAP
0C00
0C00
0000
FFC0
FFC0
0000
0C00
0C00
ENDCHAR

STARTCHAR oslash
ENCODING 248
SWIDTH 440 0
DWIDTH 10 0
BBX 8 12 1 -1
BITMAP
01
0E
3F
67
4B
CB
D3
D2
E6
FC
70
80
ENDCHAR

STARTCHAR ugrave
ENCODING 249
SWIDTH 460 0
DWIDTH 11 0
BBX 11 15 0 0
BITMAP
1800
0C00
0600
0300
0000
30C0
70C0
B0C0
30C0
2080
6180
6380
65A0
79C0
6180
ENDCHAR

STARTCHAR uacute
ENCODING 250
SWIDTH 460 0
DWIDTH 11 0
BBX 11 15 0 0
BITMAP
0180
0300
0600
0C00
0000
30C0
70C0
B0C0
30C0
2080
6180
6380
65A0
79C0
6180
ENDCHAR

STARTCHAR ucircumflex
ENCODING 251
SWIDTH 460 0
DWIDTH 11 0
BBX 11 15 0 0
BITMAP
0180
0380
06C0
0CC0
0000
30C0
70C0
B0C0
30C0
2080
6180
6380
65A0
79C0
6180
ENDCHAR

STARTCHAR udieresis
ENCODING 252
SWIDTH 460 0
DWIDTH 11 0
BBX 11 14 0 0
BITMAP
0CC0
0CC0
0000
0000
30C0
70C0
B0C0
30C0
2080
6180
6380
65A0
79C0
6180
ENDCHAR

STARTCHAR yacute
ENCODING 253
SWIDTH 400 0
DWIDTH 11 0
BBX 10 20 0 -5
BITMAP
00C0
0180
0300
0600
0000
30C0
70C0
B0C0
30C0
2080
6180
6380
6580
7980
6180
0300
0300
0200
7C00
7800
ENDCHAR

STARTCHAR thorn
ENCODING 254
SWIDTH 440 0
DWIDTH 11 0
BBX 12 22 -2 -5
BITMAP
00E0
01C0
0200
0600
0600
0600
0600
0C60
0CF0
0D30
0E30
0C30
1830
1820
1860
1FC0
1F00
3000
3000
3000
6000
F800
ENDCHAR

STARTCHAR ydieresis
ENCODING 255
SWIDTH 400 0
DWIDTH 11 0
BBX 10 19 0 -5
BITMAP
1980
1980
0000
0000
30C0
70C0
B0C0
30C0
2080
6180
6380
6580
7980
6180
0300
0300
0200
7C00
7800
ENDCHAR
ENDFONT
